<svg width="390" height="844" viewBox="0 0 390 844" fill="none" xmlns="http://www.w3.org/2000/svg">
  <rect width="390" height="844" rx="36" fill="#F4F1EA"/>
  <rect x="16" y="20" width="358" height="804" rx="28" fill="#FFFDF9" stroke="#D8D1C3"/>
  <text x="195" y="62" text-anchor="middle" font-family="Arial, sans-serif" font-size="28" font-weight="700" fill="#1E2A24">Cycle</text>

  <text x="36" y="102" font-family="Arial, sans-serif" font-size="14" font-weight="700" fill="#5A6B63">ACTIVE CYCLE</text>
  <rect x="28" y="116" width="334" height="58" rx="16" fill="#EEF4EF" stroke="#C8D7CC"/>
  <text x="44" y="152" font-family="Arial, sans-serif" font-size="20" font-weight="700" fill="#203029">4D Upper/Lower</text>

  <text x="36" y="212" font-family="Arial, sans-serif" font-size="14" font-weight="700" fill="#5A6B63">TEMPLATES</text>

  <rect x="28" y="226" width="334" height="126" rx="18" fill="#F6F3EC" stroke="#DDD3C0"/>
  <text x="44" y="256" font-family="Arial, sans-serif" font-size="19" font-weight="700" fill="#203029">4D Upper/Lower</text>
  <rect x="273" y="238" width="69" height="24" rx="12" fill="#D9EFE0"/>
  <text x="307" y="254" text-anchor="middle" font-family="Arial, sans-serif" font-size="11" font-weight="700" fill="#245238">Active</text>
  <text x="44" y="282" font-family="Arial, sans-serif" font-size="13" fill="#6C7E75">4 day(s)</text>
  <rect x="44" y="300" width="68" height="28" rx="10" fill="#FFFFFF" stroke="#D8D1C3"/>
  <text x="78" y="318" text-anchor="middle" font-family="Arial, sans-serif" font-size="13" fill="#203029">Edit</text>
  <rect x="122" y="300" width="68" height="28" rx="10" fill="#FFFFFF" stroke="#D8D1C3"/>
  <text x="156" y="318" text-anchor="middle" font-family="Arial, sans-serif" font-size="13" fill="#203029">Clone</text>
  <rect x="200" y="300" width="104" height="28" rx="10" fill="#203029"/>
  <text x="252" y="318" text-anchor="middle" font-family="Arial, sans-serif" font-size="13" font-weight="700" fill="#FFFDF9">Activate</text>

  <rect x="28" y="368" width="334" height="126" rx="18" fill="#EEF4EF" stroke="#C8D7CC"/>
  <text x="44" y="398" font-family="Arial, sans-serif" font-size="19" font-weight="700" fill="#203029">FB 2D</text>
  <text x="44" y="424" font-family="Arial, sans-serif" font-size="13" fill="#6C7E75">2 day(s)</text>
  <rect x="44" y="442" width="68" height="28" rx="10" fill="#FFFFFF" stroke="#C8D7CC"/>
  <text x="78" y="460" text-anchor="middle" font-family="Arial, sans-serif" font-size="13" fill="#203029">Edit</text>
  <rect x="122" y="442" width="68" height="28" rx="10" fill="#FFFFFF" stroke="#C8D7CC"/>
  <text x="156" y="460" text-anchor="middle" font-family="Arial, sans-serif" font-size="13" fill="#203029">Clone</text>
  <rect x="200" y="442" width="104" height="28" rx="10" fill="#203029"/>
  <text x="252" y="460" text-anchor="middle" font-family="Arial, sans-serif" font-size="13" font-weight="700" fill="#FFFDF9">Activate</text>

  <text x="36" y="538" font-family="Arial, sans-serif" font-size="14" font-weight="700" fill="#5A6B63">PUBLISHED CYCLES (ICLOUD)</text>
  <rect x="28" y="552" width="334" height="104" rx="18" fill="#F6F3EC" stroke="#DDD3C0"/>
  <text x="44" y="582" font-family="Arial, sans-serif" font-size="18" font-weight="700" fill="#203029">4d-upper-lower.json</text>
  <text x="44" y="608" font-family="Arial, sans-serif" font-size="13" fill="#6C7E75">Last refresh: Mar 14, 2026 · 1 file(s)</text>
  <rect x="44" y="620" width="74" height="28" rx="10" fill="#FFFFFF" stroke="#D8D1C3"/>
  <text x="81" y="638" text-anchor="middle" font-family="Arial, sans-serif" font-size="13" fill="#203029">Import</text>
  <rect x="128" y="620" width="136" height="28" rx="10" fill="#203029"/>
  <text x="196" y="638" text-anchor="middle" font-family="Arial, sans-serif" font-size="13" font-weight="700" fill="#FFFDF9">Import + Activate</text>

  <rect x="28" y="750" width="334" height="52" rx="18" fill="#1E2A24"/>
  <text x="78" y="782" text-anchor="middle" font-family="Arial, sans-serif" font-size="12" fill="#B8C4BD">Workout</text>
  <text x="161" y="782" text-anchor="middle" font-family="Arial, sans-serif" font-size="12" fill="#B8C4BD">History</text>
  <text x="244" y="782" text-anchor="middle" font-family="Arial, sans-serif" font-size="12" font-weight="700" fill="#FFFDF9">Cycle</text>
  <text x="327" y="782" text-anchor="middle" font-family="Arial, sans-serif" font-size="12" fill="#B8C4BD">Import</text>
</svg>
