<svg width="390" height="844" viewBox="0 0 390 844" fill="none" xmlns="http://www.w3.org/2000/svg">
  <rect width="390" height="844" rx="36" fill="#F4F1EA"/>
  <rect x="16" y="20" width="358" height="804" rx="28" fill="#FFFDF9" stroke="#D8D1C3"/>
  <text x="195" y="62" text-anchor="middle" font-family="Arial, sans-serif" font-size="28" font-weight="700" fill="#1E2A24">Workout</text>
  <text x="36" y="102" font-family="Arial, sans-serif" font-size="18" font-weight="700" fill="#41574C">Upper A · Draft session</text>

  <rect x="28" y="122" width="334" height="108" rx="18" fill="#EEF4EF" stroke="#C8D7CC"/>
  <text x="44" y="150" font-family="Arial, sans-serif" font-size="17" font-weight="700" fill="#203029">Flat Dumbbell Press</text>
  <text x="44" y="176" font-family="Arial, sans-serif" font-size="13" fill="#5A6B63">Set 1</text>
  <rect x="96" y="160" width="74" height="28" rx="10" fill="#FFFFFF" stroke="#C8D7CC"/>
  <text x="121" y="178" text-anchor="middle" font-family="Arial, sans-serif" font-size="14" fill="#2A3A33">70</text>
  <rect x="182" y="160" width="74" height="28" rx="10" fill="#FFFFFF" stroke="#C8D7CC"/>
  <text x="207" y="178" text-anchor="middle" font-family="Arial, sans-serif" font-size="14" fill="#2A3A33">9</text>
  <text x="44" y="208" font-family="Arial, sans-serif" font-size="13" fill="#5A6B63">Set 2</text>
  <rect x="96" y="192" width="74" height="28" rx="10" fill="#FFFFFF" stroke="#C8D7CC"/>
  <text x="121" y="210" text-anchor="middle" font-family="Arial, sans-serif" font-size="14" fill="#2A3A33">70</text>
  <rect x="182" y="192" width="74" height="28" rx="10" fill="#FFFFFF" stroke="#C8D7CC"/>
  <text x="207" y="210" text-anchor="middle" font-family="Arial, sans-serif" font-size="14" fill="#2A3A33">8</text>

  <rect x="28" y="244" width="334" height="108" rx="18" fill="#F6F3EC" stroke="#DDD3C0"/>
  <text x="44" y="272" font-family="Arial, sans-serif" font-size="17" font-weight="700" fill="#203029">Assisted Pull-Up</text>
  <text x="44" y="298" font-family="Arial, sans-serif" font-size="13" fill="#5A6B63">Set 1</text>
  <rect x="96" y="282" width="74" height="28" rx="10" fill="#FFFFFF" stroke="#D8D1C3"/>
  <text x="121" y="300" text-anchor="middle" font-family="Arial, sans-serif" font-size="14" fill="#2A3A33">-70</text>
  <rect x="182" y="282" width="74" height="28" rx="10" fill="#FFFFFF" stroke="#D8D1C3"/>
  <text x="207" y="300" text-anchor="middle" font-family="Arial, sans-serif" font-size="14" fill="#2A3A33">8</text>
  <text x="44" y="330" font-family="Arial, sans-serif" font-size="13" fill="#5A6B63">Set 2</text>
  <rect x="96" y="314" width="74" height="28" rx="10" fill="#FFFFFF" stroke="#D8D1C3"/>
  <text x="121" y="332" text-anchor="middle" font-family="Arial, sans-serif" font-size="14" fill="#2A3A33">-70</text>
  <rect x="182" y="314" width="74" height="28" rx="10" fill="#FFFFFF" stroke="#D8D1C3"/>
  <text x="207" y="332" text-anchor="middle" font-family="Arial, sans-serif" font-size="14" fill="#2A3A33">8</text>

  <rect x="28" y="366" width="334" height="108" rx="18" fill="#EEF4EF" stroke="#C8D7CC"/>
  <text x="44" y="394" font-family="Arial, sans-serif" font-size="17" font-weight="700" fill="#203029">Cable Crossover Lateral Raise</text>
  <text x="44" y="420" font-family="Arial, sans-serif" font-size="13" fill="#5A6B63">Set 1</text>
  <rect x="96" y="404" width="74" height="28" rx="10" fill="#FFFFFF" stroke="#C8D7CC"/>
  <text x="121" y="422" text-anchor="middle" font-family="Arial, sans-serif" font-size="14" fill="#2A3A33">15</text>
  <rect x="182" y="404" width="74" height="28" rx="10" fill="#FFFFFF" stroke="#C8D7CC"/>
  <text x="207" y="422" text-anchor="middle" font-family="Arial, sans-serif" font-size="14" fill="#2A3A33">10</text>
  <text x="44" y="452" font-family="Arial, sans-serif" font-size="13" fill="#5A6B63">Set 2</text>
  <rect x="96" y="436" width="74" height="28" rx="10" fill="#FFFFFF" stroke="#C8D7CC"/>
  <text x="121" y="454" text-anchor="middle" font-family="Arial, sans-serif" font-size="14" fill="#2A3A33">15</text>
  <rect x="182" y="436" width="74" height="28" rx="10" fill="#FFFFFF" stroke="#C8D7CC"/>
  <text x="207" y="454" text-anchor="middle" font-family="Arial, sans-serif" font-size="14" fill="#2A3A33">8</text>

  <rect x="28" y="490" width="334" height="60" rx="16" fill="#203029"/>
  <text x="195" y="527" text-anchor="middle" font-family="Arial, sans-serif" font-size="18" font-weight="700" fill="#FFFDF9">Finish Workout</text>

  <rect x="28" y="750" width="334" height="52" rx="18" fill="#1E2A24"/>
  <text x="78" y="782" text-anchor="middle" font-family="Arial, sans-serif" font-size="12" font-weight="700" fill="#FFFDF9">Workout</text>
  <text x="161" y="782" text-anchor="middle" font-family="Arial, sans-serif" font-size="12" fill="#B8C4BD">History</text>
  <text x="244" y="782" text-anchor="middle" font-family="Arial, sans-serif" font-size="12" fill="#B8C4BD">Cycle</text>
  <text x="327" y="782" text-anchor="middle" font-family="Arial, sans-serif" font-size="12" fill="#B8C4BD">Import</text>
</svg>
